<svg id="Group_12584" data-name="Group 12584" xmlns="http://www.w3.org/2000/svg" width="31.715" height="25.641" viewBox="0 0 31.715 25.641">
  <path id="Path_18" data-name="Path 18" d="M296.9,2238.012a5.646,5.646,0,0,0-3.5,1.221,7.083,7.083,0,1,0-.276,8.661,5.662,5.662,0,1,0,3.773-9.882Zm-9.234,10.012a4.644,4.644,0,1,1,4.644-4.644A4.65,4.65,0,0,1,287.665,2248.024Zm9.234-1.127a3.183,3.183,0,0,1-2.521-1.257,6.924,6.924,0,0,0,.128-4.083,3.21,3.21,0,1,1,2.393,5.341Z" transform="translate(-275.066 -2236.292)" fill="#cde8e8"/>
  <path id="Path_19" data-name="Path 19" d="M296.774,2249.869a10.872,10.872,0,0,0-6.708,2.2,15.189,15.189,0,0,0-2.527-.216c-6.336,0-11.667,3.864-12.4,8.986l-.2,1.4h25.2l-.2-1.4a8.637,8.637,0,0,0-.777-2.515h7.495l-.2-1.4C305.881,2252.905,301.718,2249.869,296.774,2249.869Zm-18.845,9.922c1.255-3.212,5.111-5.492,9.611-5.492s8.354,2.28,9.611,5.492Zm23.335-3.91h-3.782a12.227,12.227,0,0,0-4.2-2.879,9.117,9.117,0,0,1,3.488-.688c3.091,0,5.762,1.46,6.822,3.567Z" transform="translate(-274.941 -2236.594)" fill="#cde8e8"/>
</svg>
